name C:/MyDriveSym/Projects/mobilecap/Data\Session20210813_0002\mocap\ForceDataProcessed\walking3_forces.mot
datacolumns 19
datarows 22
range 1.14700000 1.15750000
endheader 
time	R_ground_force_vx	R_ground_force_vy	R_ground_force_vz	R_ground_force_px	R_ground_force_py	R_ground_force_pz	R_ground_torque_x	R_ground_torque_y	R_ground_torque_z	L_ground_force_vx	L_ground_force_vy	L_ground_force_vz	L_ground_force_px	L_ground_force_py	L_ground_force_pz	L_ground_torque_x	L_ground_torque_y	L_ground_torque_z	
          1.14700000	          0.00000000	          0.00000000	          0.00000000	          1.37030800	          0.00000000	         -0.16592300	          0.00000000	          0.00000000	          0.00000000	         47.09988100	        809.52661000	         32.70399500	          1.05069200	          0.00600000	         -0.27148700	          0.00000000	          5.40282600	          0.00000000	
          1.14750000	          0.00000000	          0.00000000	          0.00000000	          1.37137600	          0.00000000	         -0.16595300	          0.00000000	          0.00000000	          0.00000000	         47.35532800	        809.70138700	         32.72877100	          1.05085100	          0.00600000	         -0.27149100	          0.00000000	          5.40186300	          0.00000000	
          1.14800000	          0.00000000	          0.00000000	          0.00000000	          1.37244400	          0.00000000	         -0.16598400	          0.00000000	          0.00000000	          0.00000000	         47.61097400	        809.87130800	         32.75296900	          1.05101100	          0.00600000	         -0.27149500	          0.00000000	          5.40085000	          0.00000000	
          1.14850000	          0.00000000	          0.00000000	          0.00000000	          1.37351200	          0.00000000	         -0.16601500	          0.00000000	          0.00000000	          0.00000000	         47.86681200	        810.03633900	         32.77658700	          1.05117100	          0.00600000	         -0.27149800	          0.00000000	          5.39978500	          0.00000000	
          1.14900000	          0.00000000	          0.00000000	          0.00000000	          1.37458000	          0.00000000	         -0.16604500	          0.00000000	          0.00000000	          0.00000000	         48.12283600	        810.19644500	         32.79962000	          1.05133100	          0.00600000	         -0.27150200	          0.00000000	          5.39867100	          0.00000000	
          1.14950000	          0.00000000	          0.00000000	          0.00000000	          1.37564800	          0.00000000	         -0.16607600	          0.00000000	          0.00000000	          0.00000000	         48.37903900	        810.35159400	         32.82206600	          1.05149100	          0.00600000	         -0.27150500	          0.00000000	          5.39750600	          0.00000000	
          1.15000000	          0.00000000	          0.00000000	          0.00000000	          1.37671600	          0.00000000	         -0.16610600	          0.00000000	          0.00000000	          0.00000000	         48.63541500	        810.50175000	         32.84392000	          1.05165100	          0.00600000	         -0.27150900	          0.00000000	          5.39629000	          0.00000000	
          1.15050000	          0.00000000	          0.00000000	          0.00000000	          1.37778400	          0.00000000	         -0.16613700	          0.00000000	          0.00000000	          0.00000000	         48.89195700	        810.64687900	         32.86518100	          1.05181200	          0.00600000	         -0.27151200	          0.00000000	          5.39502300	          0.00000000	
          1.15100000	          0.00000000	          0.00000000	          0.00000000	          1.37885200	          0.00000000	         -0.16616700	          0.00000000	          0.00000000	          0.00000000	         49.14866000	        810.78694600	         32.88584300	          1.05197300	          0.00600000	         -0.27151500	          0.00000000	          5.39370500	          0.00000000	
          1.15150000	          0.00000000	          0.00000000	          0.00000000	          1.37992000	          0.00000000	         -0.16619800	          0.00000000	          0.00000000	          0.00000000	         49.40551500	        810.92191700	         32.90590500	          1.05213400	          0.00600000	         -0.27151800	          0.00000000	          5.39233600	          0.00000000	
          1.15200000	          0.00000000	          0.00000000	          0.00000000	          1.38098800	          0.00000000	         -0.16622800	          0.00000000	          0.00000000	          0.00000000	         49.66251700	        811.05175600	         32.92536200	          1.05229500	          0.00600000	         -0.27152100	          0.00000000	          5.39091700	          0.00000000	
          1.15250000	          0.00000000	          0.00000000	          0.00000000	          1.38205600	          0.00000000	         -0.16625900	          0.00000000	          0.00000000	          0.00000000	         49.91965900	        811.17642800	         32.94421100	          1.05245700	          0.00600000	         -0.27152400	          0.00000000	          5.38944600	          0.00000000	
          1.15300000	          0.00000000	          0.00000000	          0.00000000	          1.38312400	          0.00000000	         -0.16628900	          0.00000000	          0.00000000	          0.00000000	         50.17693400	        811.29589800	         32.96244900	          1.05261800	          0.00600000	         -0.27152600	          0.00000000	          5.38792400	          0.00000000	
          1.15350000	          0.00000000	          0.00000000	          0.00000000	          1.38419200	          0.00000000	         -0.16632000	          0.00000000	          0.00000000	          0.00000000	         50.43433500	        811.41013100	         32.98007200	          1.05278000	          0.00600000	         -0.27152900	          0.00000000	          5.38635100	          0.00000000	
          1.15400000	          0.00000000	          0.00000000	          0.00000000	          1.38526000	          0.00000000	         -0.16635000	          0.00000000	          0.00000000	          0.00000000	         50.69185600	        811.51909100	         32.99707700	          1.05294200	          0.00600000	         -0.27153200	          0.00000000	          5.38472600	          0.00000000	
          1.15450000	          0.00000000	          0.00000000	          0.00000000	          1.38632800	          0.00000000	         -0.16638100	          0.00000000	          0.00000000	          0.00000000	         50.94948900	        811.62274200	         33.01346100	          1.05310500	          0.00600000	         -0.27153400	          0.00000000	          5.38305000	          0.00000000	
          1.15500000	          0.00000000	          0.00000000	          0.00000000	          1.38739600	          0.00000000	         -0.16641100	          0.00000000	          0.00000000	          0.00000000	         51.20722700	        811.72104900	         33.02922100	          1.05326700	          0.00600000	         -0.27153700	          0.00000000	          5.38132300	          0.00000000	
          1.15550000	          0.00000000	          0.00000000	          0.00000000	          1.38846400	          0.00000000	         -0.16644200	          0.00000000	          0.00000000	          0.00000000	         51.46506300	        811.81397600	         33.04435200	          1.05343000	          0.00600000	         -0.27153900	          0.00000000	          5.37954400	          0.00000000	
          1.15600000	          0.00000000	          0.00000000	          0.00000000	          1.38953200	          0.00000000	         -0.16647300	          0.00000000	          0.00000000	          0.00000000	         51.72299100	        811.90148600	         33.05885200	          1.05359300	          0.00600000	         -0.27154100	          0.00000000	          5.37771400	          0.00000000	
          1.15650000	          0.00000000	          0.00000000	          0.00000000	          1.39059900	          0.00000000	         -0.16650300	          0.00000000	          0.00000000	          0.00000000	         51.98100300	        811.98354400	         33.07271700	          1.05375600	          0.00600000	         -0.27154300	          0.00000000	          5.37583200	          0.00000000	
          1.15700000	          0.00000000	          0.00000000	          0.00000000	          1.39166700	          0.00000000	         -0.16653400	          0.00000000	          0.00000000	          0.00000000	         52.23909200	        812.06011300	         33.08594300	          1.05391900	          0.00600000	         -0.27154500	          0.00000000	          5.37389900	          0.00000000	
          1.15750000	          0.00000000	          0.00000000	          0.00000000	          1.39273500	          0.00000000	         -0.16656400	          0.00000000	          0.00000000	          0.00000000	         52.49725000	        812.13115600	         33.09852800	          1.05408200	          0.00600000	         -0.27154700	          0.00000000	          5.37191500	          0.00000000	
